<svg width="24" height="24" viewBox="0 0 24 24" fill="none" xmlns="http://www.w3.org/2000/svg">
<rect width="24" height="24" rx="12" fill="#FFCECE"/>
<path fill-rule="evenodd" clip-rule="evenodd" d="M11.9999 16.32V16.32C11.8723 16.32 11.7503 16.2696 11.6601 16.1789L7.93193 12.4445C6.95465 11.4653 6.95465 9.87219 7.93193 8.89299C8.40377 8.42067 9.03401 8.16003 9.70553 8.16003C10.3771 8.16003 11.0073 8.42067 11.4791 8.89299L11.9999 9.41475L12.5203 8.89347C12.9926 8.42067 13.6228 8.16003 14.2943 8.16003C14.9659 8.16003 15.5961 8.42067 16.0679 8.89299C17.0452 9.87219 17.0452 11.4653 16.0684 12.4445L12.3398 16.1794C12.2495 16.2696 12.1276 16.32 11.9999 16.32" fill="#E24444"/>
<mask id="mask0_30_3386" style="mask-type:alpha" maskUnits="userSpaceOnUse" x="7" y="8" width="10" height="9">
<path fill-rule="evenodd" clip-rule="evenodd" d="M11.9999 16.32V16.32C11.8723 16.32 11.7503 16.2696 11.6601 16.1789L7.93193 12.4445C6.95465 11.4653 6.95465 9.87219 7.93193 8.89299C8.40377 8.42067 9.03401 8.16003 9.70553 8.16003C10.3771 8.16003 11.0073 8.42067 11.4791 8.89299L11.9999 9.41475L12.5203 8.89347C12.9926 8.42067 13.6228 8.16003 14.2943 8.16003C14.9659 8.16003 15.5961 8.42067 16.0679 8.89299C17.0452 9.87219 17.0452 11.4653 16.0684 12.4445L12.3398 16.1794C12.2495 16.2696 12.1276 16.32 11.9999 16.32" fill="white"/>
</mask>
<g mask="url(#mask0_30_3386)">
<rect x="6.23999" y="6.23999" width="11.52" height="11.52" fill="#E24444"/>
</g>
</svg>
