<svg width="1826.0375px" height="336.8px" xmlns="http://www.w3.org/2000/svg" viewBox="-663.01875 -93.4 1826.0375 336.8" style="background: rgba(0, 0, 0, 0);" preserveAspectRatio="xMidYMid"><defs><linearGradient id="editing-gradient-gradient" x1="0.5522642316338267" x2="0.44773576836617335" y1="0.0027390523158632996" y2="0.9972609476841368" gradientUnits="objectBoundingBox"><stop offset="0" stop-color="#5d60ed"></stop><stop offset="1" stop-color="#6366f1"></stop></linearGradient></defs><g><g transform="translate(-408.6999877691269, 150)"><path d="M1.40-1L1.40-1L26.60-132L26.60-132Q50.20-134 65.40-134L65.40-134L65.40-134Q80.60-134 90.40-132.70L90.40-132.70L90.40-132.70Q100.20-131.40 106.80-128L106.80-128L106.80-128Q120-121.60 120-104L120-104L120-104Q120-93.80 111.20-85.20L111.20-85.20L111.20-85.20Q103-77.40 94-75.60L94-75.60L94-75.60Q103.60-74 110.40-66.80L110.40-66.80L110.40-66.80Q117.60-59.20 117.60-47.40L117.60-47.40L117.60-47.40Q117.60-24.60 100.60-11.30L100.60-11.30L100.60-11.30Q83.60 2 50.20 2L50.20 2L50.20 2Q27.20 2 1.40-1ZM55.80-64.40L45.80-12.60L45.80-12.60Q47.60-12.40 48-12.40L48-12.40L49.80-12.40L49.80-12.40Q66.20-12.40 73.20-23.20L73.20-23.20L73.20-23.20Q78.40-31.60 78.40-47L78.40-47L78.40-47Q78.40-55.20 73.10-59.60L73.10-59.60L73.10-59.60Q67.80-64 55.80-64.40L55.80-64.40ZM86.20-103.80L86.20-103.80L86.20-103.80Q86.20-120.40 70.20-120.40L70.20-120.40L68.40-120.40L68.40-120.40Q67.60-120.40 66.40-120.20L66.40-120.20L58.40-78L60.40-78L60.40-78Q86.20-78.60 86.20-103.80ZM178.80-11L178.80-11L178.80-11Q172.60 4 152.80 4L152.80 4L152.80 4Q142.60 4 136.20-3L136.20-3L136.20-3Q130.80-9.20 130.80-15.40L130.80-15.40L130.80-15.40Q130.80-31.60 138.20-63.20L138.20-63.20L145.60-102L186.20-106L174-42.80L174-42.80Q170.60-28 170.60-22.80L170.60-22.80L170.60-22.80Q170.60-11.40 178.80-11ZM149.20-129.80L149.20-129.80L149.20-129.80Q149.20-137.60 155.70-141.80L155.70-141.80L155.70-141.80Q162.20-146 171.60-146L171.60-146L171.60-146Q181-146 186.70-141.80L186.70-141.80L186.70-141.80Q192.40-137.60 192.40-129.80L192.40-129.80L192.40-129.80Q192.40-122 186.10-118L186.10-118L186.10-118Q179.80-114 170.40-114L170.40-114L170.40-114Q161-114 155.10-118L155.10-118L155.10-118Q149.20-122 149.20-129.80ZM239.40 4L239.40 4L239.40 4Q195.40 4 195.40-37.40L195.40-37.40L195.40-37.40Q195.40-66.80 211.60-85.80L211.60-85.80L211.60-85.80Q228.80-106 258.60-106L258.60-106L258.60-106Q280.20-106 291.20-96L291.20-96L291.20-96Q302.20-86 302.20-65L302.20-65L302.20-65Q302.20-33 285-14.40L285-14.40L285-14.40Q268.20 4 239.40 4ZM244.60-83L244.60-83L244.60-83Q242.20-77.60 240.30-69.50L240.30-69.50L240.30-69.50Q238.40-61.40 236-48.60L236-48.60L236-48.60Q233.60-35.80 233.60-20L233.60-20L233.60-20Q233.60-14.80 235.30-11.40L235.30-11.40L235.30-11.40Q237-8 241.60-8L241.60-8L241.60-8Q246.20-8 249.10-10.20L249.10-10.20L249.10-10.20Q252-12.40 254.20-17.60L254.20-17.60L254.20-17.60Q258.20-26.80 261.40-43.90L261.40-43.90L261.40-43.90Q264.60-61 264.90-68.40L264.90-68.40L264.90-68.40Q265.20-75.80 265.20-81.30L265.20-81.30L265.20-81.30Q265.20-86.80 263.60-90.40L263.60-90.40L263.60-90.40Q262-94 257.50-94L257.50-94L257.50-94Q253-94 250-91.20L250-91.20L250-91.20Q247-88.40 244.60-83ZM373.80-70.20L373.80-70.20L373.80-70.20Q376.60-77.60 376.60-84L376.60-84L376.60-84Q376.60-95.80 367-95.80L367-95.80L367-95.80Q362-95.80 357.90-91.30L357.90-91.30L357.90-91.30Q353.80-86.80 353.80-81.20L353.80-81.20L353.80-81.20Q353.80-77.20 357-74L357-74L357-74Q361.60-69.60 373.40-62.40L373.40-62.40L373.40-62.40Q385.20-55.20 389.70-49.30L389.70-49.30L389.70-49.30Q394.20-43.40 394.20-35.30L394.20-35.30L394.20-35.30Q394.20-27.20 390.30-19.80L390.30-19.80L390.30-19.80Q386.40-12.40 379.40-7.20L379.40-7.20L379.40-7.20Q364.40 4 340.40 4L340.40 4L340.40 4Q327.40 4 317.40-2.80L317.40-2.80L317.40-2.80Q307.40-9.40 307.40-17.20L307.40-17.20L307.40-17.20Q307.40-25 313.10-29.60L313.10-29.60L313.10-29.60Q318.80-34.20 327.20-34.20L327.20-34.20L327.20-34.20Q335.60-34.20 340.80-31L340.80-31L340.80-31Q338.20-24.40 338.20-20L338.20-20L338.20-20Q338.20-6.80 349.40-6.80L349.40-6.80L349.40-6.80Q354.20-6.80 357.40-9.80L357.40-9.80L357.40-9.80Q360.60-12.80 360.60-18L360.60-18L360.60-18Q360.60-28.20 343.40-39L343.40-39L343.40-39Q329.40-48.20 326.20-51.80L326.20-51.80L326.20-51.80Q320.80-58.20 320.80-66.20L320.80-66.20L320.80-66.20Q320.80-74.20 324.60-81.80L324.60-81.80L324.60-81.80Q328.40-89.40 335.40-94.80L335.40-94.80L335.40-94.80Q350-106 375.40-106L375.40-106L375.40-106Q388.40-106 396.10-100.80L396.10-100.80L396.10-100.80Q403.80-95.60 403.80-86.80L403.80-86.80L403.80-86.80Q403.80-78 398.50-73L398.50-73L398.50-73Q393.20-68 383.60-68L383.60-68L383.60-68Q377-68 373.80-70.20ZM459.20-11L459.20-11L459.20-11Q453 4 433.20 4L433.20 4L433.20 4Q423 4 416.60-3L416.60-3L416.60-3Q411.20-9.20 411.20-15.40L411.20-15.40L411.20-15.40Q411.20-31.60 418.60-63.20L418.60-63.20L426-102L466.60-106L454.40-42.80L454.40-42.80Q451-28 451-22.80L451-22.80L451-22.80Q451-11.40 459.20-11ZM429.60-129.80L429.60-129.80L429.60-129.80Q429.60-137.60 436.10-141.80L436.10-141.80L436.10-141.80Q442.60-146 452-146L452-146L452-146Q461.40-146 467.10-141.80L467.10-141.80L467.10-141.80Q472.80-137.60 472.80-129.80L472.80-129.80L472.80-129.80Q472.80-122 466.50-118L466.50-118L466.50-118Q460.20-114 450.80-114L450.80-114L450.80-114Q441.40-114 435.50-118L435.50-118L435.50-118Q429.60-122 429.60-129.80ZM479.40-20L479.40-20L479.40-20Q479.40-25.40 482.20-39L482.20-39L492.80-93L481-93L481.80-99L481.80-99Q505.80-106.20 529-123.80L529-123.80L538.60-123.80L533.80-102L549.40-102L547.60-93L532.20-93L522-39L522-39Q519.40-26.60 519.40-22.40L519.40-22.40L519.40-22.40Q519.40-12.80 527.80-10.80L527.80-10.80L527.80-10.80Q525.80-4 518.60 0L518.60 0L518.60 0Q511.40 4 501.20 4L501.20 4L501.20 4Q491 4 485.20-2.40L485.20-2.40L485.20-2.40Q479.40-8.80 479.40-20ZM628.60-33.80L628.60-33.80L628.60-33.80Q633.60-30.40 633.60-22.90L633.60-22.90L633.60-22.90Q633.60-15.40 629.80-10.60L629.80-10.60L629.80-10.60Q626-5.80 619.80-2.60L619.80-2.60L619.80-2.60Q607 4 593.20 4L593.20 4L593.20 4Q579.40 4 571.30 1L571.30 1L571.30 1Q563.20-2 557.80-7.60L557.80-7.60L557.80-7.60Q547.20-18.20 547.20-37.60L547.20-37.60L547.20-37.60Q547.20-67.80 563.60-86.20L563.60-86.20L563.60-86.20Q581.20-106 611.80-106L611.80-106L611.80-106Q630.80-106 640.20-98L640.20-98L640.20-98Q647.20-92 647.20-82.20L647.20-82.20L647.20-82.20Q647.20-47 586.40-47L586.40-47L586.40-47Q585.60-41.80 585.60-37.40L585.60-37.40L585.60-37.40Q585.60-28.20 589.70-24.70L589.70-24.70L589.70-24.70Q593.80-21.20 601.40-21.20L601.40-21.20L601.40-21.20Q609-21.20 617.10-24.70L617.10-24.70L617.10-24.70Q625.20-28.20 628.60-33.80ZM587.80-55.60L587.80-55.60L587.80-55.60Q602-55.60 610.20-64.40L610.20-64.40L610.20-64.40Q618.40-72.80 618.40-86.20L618.40-86.20L618.40-86.20Q618.40-90.80 616.70-93.30L616.70-93.30L616.70-93.30Q615-95.80 611.60-95.80L611.60-95.80L611.60-95.80Q608.20-95.80 605.30-94.50L605.30-94.50L605.30-94.50Q602.40-93.20 599.40-88.80L599.40-88.80L599.40-88.80Q592-78.80 587.80-55.60ZM769.80-15L769.80-15L769.80-15Q769.80-29 775.40-57L775.40-57L745.80-57L734.80 0L693.00 0L718.40-132L760.60-132L749.00-73L778.60-73L789.60-132L831.80-132L831.80-132Q829.00-117.20 825.40-100.60L825.40-100.60L818.60-68L818.60-68Q811.00-30 811.00-13.40L811.00-13.40L811.00-13.40Q811.00-6.60 813.20-2.80L813.20-2.80L813.20-2.80Q803.20 4 791.50 4L791.50 4L791.50 4Q779.80 4 774.80-1.60L774.80-1.60L774.80-1.60Q769.80-7.20 769.80-15ZM917.60-33.80L917.60-33.80L917.60-33.80Q922.60-30.40 922.60-22.90L922.60-22.90L922.60-22.90Q922.60-15.40 918.80-10.60L918.80-10.60L918.80-10.60Q915-5.80 908.80-2.60L908.80-2.60L908.80-2.60Q896 4 882.20 4L882.20 4L882.20 4Q868.40 4 860.30 1L860.30 1L860.30 1Q852.20-2 846.80-7.60L846.80-7.60L846.80-7.60Q836.20-18.20 836.20-37.60L836.20-37.60L836.20-37.60Q836.20-67.80 852.60-86.20L852.60-86.20L852.60-86.20Q870.20-106 900.80-106L900.80-106L900.80-106Q919.80-106 929.20-98L929.20-98L929.20-98Q936.20-92 936.20-82.20L936.20-82.20L936.20-82.20Q936.20-47 875.40-47L875.40-47L875.40-47Q874.60-41.80 874.60-37.40L874.60-37.40L874.60-37.40Q874.60-28.20 878.70-24.70L878.70-24.70L878.70-24.70Q882.80-21.20 890.40-21.20L890.40-21.20L890.40-21.20Q898-21.20 906.10-24.70L906.10-24.70L906.10-24.70Q914.20-28.20 917.60-33.80ZM876.80-55.60L876.80-55.60L876.80-55.60Q891-55.60 899.20-64.40L899.20-64.40L899.20-64.40Q907.40-72.80 907.40-86.20L907.40-86.20L907.40-86.20Q907.40-90.80 905.70-93.30L905.70-93.30L905.70-93.30Q904-95.80 900.60-95.80L900.60-95.80L900.60-95.80Q897.20-95.80 894.30-94.50L894.30-94.50L894.30-94.50Q891.40-93.20 888.40-88.80L888.40-88.80L888.40-88.80Q881-78.80 876.80-55.60ZM951.70-6L951.70-6L951.70-6Q947-11.20 944.90-19.40L944.90-19.40L944.90-19.40Q942.80-27.60 942.80-41L942.80-41L942.80-41Q942.80-54.40 947.40-66.60L947.40-66.60L947.40-66.60Q952-78.80 960.40-87.60L960.40-87.60L960.40-87.60Q977.60-106 1006-106L1006-106L1006-106Q1016.20-106 1023.60-102.60L1023.60-102.60L1057.80-106L1043-28L1043-28Q1042.40-25.60 1042.40-21.20L1042.40-21.20L1042.40-21.20Q1042.40-16.80 1045.10-14L1045.10-14L1045.10-14Q1047.80-11.20 1051.80-10.80L1051.80-10.80L1051.80-10.80Q1049.80-4 1042.50 0L1042.50 0L1042.50 0Q1035.20 4 1027 4L1027 4L1027 4Q1018.80 4 1013.30 0.90L1013.30 0.90L1013.30 0.90Q1007.80-2.20 1006.20-7.40L1006.20-7.40L1006.20-7.40Q1003-2.40 996.20 0.80L996.20 0.80L996.20 0.80Q989.40 4 980.30 4L980.30 4L980.30 4Q971.20 4 963.80 1.60L963.80 1.60L963.80 1.60Q956.40-0.80 951.70-6ZM993.90-87.20L993.90-87.20L993.90-87.20Q991.60-83.60 989.60-77.50L989.60-77.50L989.60-77.50Q987.60-71.40 984.30-55.10L984.30-55.10L984.30-55.10Q981-38.80 981-27.20L981-27.20L981-27.20Q981-15.60 982.80-12.20L982.80-12.20L982.80-12.20Q984.60-8.80 987.80-8.80L987.80-8.80L987.80-8.80Q994.20-8.80 998.90-14.90L998.90-14.90L998.90-14.90Q1003.60-21 1005.40-31.80L1005.40-31.80L1016-90.40L1016-90.40Q1011.80-94 1006.90-94L1006.90-94L1006.90-94Q1002-94 999.10-92.40L999.10-92.40L999.10-92.40Q996.20-90.80 993.90-87.20ZM1116.40-11L1116.40-11L1116.40-11Q1110.20 4 1090.40 4L1090.40 4L1090.40 4Q1080.40 4 1074-3L1074-3L1074-3Q1068.80-8.80 1068.80-15.40L1068.80-15.40L1068.80-15.40Q1068.80-30.40 1075.80-63.20L1075.80-63.20L1090.40-140L1131-144L1111.60-42.80L1111.60-42.80Q1108.20-28 1108.20-22.80L1108.20-22.80L1108.20-22.80Q1108.20-11.40 1116.40-11ZM1136.60-20L1136.60-20L1136.60-20Q1136.60-25.40 1139.40-39L1139.40-39L1150-93L1138.20-93L1139-99L1139-99Q1163-106.20 1186.20-123.80L1186.20-123.80L1195.80-123.80L1191-102L1206.60-102L1204.80-93L1189.40-93L1179.20-39L1179.20-39Q1176.60-26.60 1176.60-22.40L1176.60-22.40L1176.60-22.40Q1176.60-12.80 1185-10.80L1185-10.80L1185-10.80Q1183-4 1175.80 0L1175.80 0L1175.80 0Q1168.60 4 1158.40 4L1158.40 4L1158.40 4Q1148.20 4 1142.40-2.40L1142.40-2.40L1142.40-2.40Q1136.60-8.80 1136.60-20ZM1306.20-22.20L1306.20-22.20L1306.20-22.20Q1306.20-13.40 1315.20-10.80L1315.20-10.80L1315.20-10.80Q1313-3.40 1304.40 0.60L1304.40 0.60L1304.40 0.60Q1297.20 4 1289.30 4L1289.30 4L1289.30 4Q1281.40 4 1277.30 1.90L1277.30 1.90L1277.30 1.90Q1273.20-0.20 1271-3.60L1271-3.60L1271-3.60Q1267.40-8.80 1267.40-18.60L1267.40-18.60L1267.40-18.60Q1267.40-24.40 1270.60-40.40L1270.60-40.40L1273.40-55.60L1273.40-55.60Q1276.80-73 1276.80-79.40L1276.80-79.40L1276.80-79.40Q1276.80-90.60 1270.60-90.60L1270.60-90.60L1270.60-90.60Q1262.80-90.60 1257.80-79.20L1257.80-79.20L1257.80-79.20Q1255.80-74.80 1254.40-68.20L1254.40-68.20L1240.80 0L1200.60 4L1228.80-140L1269-144L1267.40-136L1267.40-136Q1261.80-105.20 1257-94.80L1257-94.80L1257-94.80Q1268.20-106 1288.80-106L1288.80-106L1288.80-106Q1310.60-106 1314.60-91.60L1314.60-91.60L1314.60-91.60Q1316-87 1316-83L1316-83L1316-83Q1316-79 1315.70-75.90L1315.70-75.90L1315.70-75.90Q1315.40-72.80 1314.40-67.20L1314.40-67.20L1311.80-52.80L1307.20-30.20L1307.20-30.20Q1306.20-25.60 1306.20-22.20Z" fill="url(#editing-gradient-gradient)"></path></g></g><style>text {
  font-size: 64px;
  font-family: Arial Black;
  dominant-baseline: central;
  text-anchor: middle;
}</style></svg>